<?xml version="1.0" encoding="UTF-8" standalone="no"?>
<!-- Created with Inkscape (http://www.inkscape.org/) -->

<svg
   xmlns:osb="http://www.openswatchbook.org/uri/2009/osb"
   xmlns:dc="http://purl.org/dc/elements/1.1/"
   xmlns:cc="http://creativecommons.org/ns#"
   xmlns:rdf="http://www.w3.org/1999/02/22-rdf-syntax-ns#"
   xmlns:svg="http://www.w3.org/2000/svg"
   xmlns="http://www.w3.org/2000/svg"
   xmlns:sodipodi="http://sodipodi.sourceforge.net/DTD/sodipodi-0.dtd"
   xmlns:inkscape="http://www.inkscape.org/namespaces/inkscape"
   width="31.757156mm"
   height="23.364414mm"
   viewBox="0 0 31.757156 23.364414"
   version="1.1"
   id="svg8"
   inkscape:version="0.92.1 r15371"
   sodipodi:docname="MiQUBase_logo_white.svg">
  <sodipodi:namedview
     id="base"
     pagecolor="#ffffff"
     bordercolor="#666666"
     borderopacity="1.0"
     inkscape:pageopacity="0.0"
     inkscape:pageshadow="2"
     inkscape:zoom="2.8"
     inkscape:cx="-29.389382"
     inkscape:cy="5.9783576"
     inkscape:document-units="mm"
     inkscape:current-layer="g5926"
     showgrid="false"
     inkscape:window-width="1920"
     inkscape:window-height="1005"
     inkscape:window-x="1911"
     inkscape:window-y="-9"
     inkscape:window-maximized="1" />
  <defs
     id="defs2">
    <linearGradient
       osb:paint="solid"
       id="linearGradient5465">
      <stop
         id="stop5463"
         offset="0"
         style="stop-color:#000000;stop-opacity:1;" />
    </linearGradient>
    <linearGradient
       id="linearGradient4815"
       osb:paint="solid">
      <stop
         style="stop-color:#000000;stop-opacity:1;"
         offset="0"
         id="stop4813" />
    </linearGradient>
    <linearGradient
       id="linearGradient4809"
       osb:paint="solid">
      <stop
         style="stop-color:#000000;stop-opacity:1;"
         offset="0"
         id="stop4807" />
    </linearGradient>
  </defs>
  <metadata
     id="metadata5">
    <rdf:RDF>
      <cc:Work
         rdf:about="">
        <dc:format>image/svg+xml</dc:format>
        <dc:type
           rdf:resource="http://purl.org/dc/dcmitype/StillImage" />
        <dc:title></dc:title>
      </cc:Work>
    </rdf:RDF>
  </metadata>
  <g
     inkscape:label="Layer 1"
     inkscape:groupmode="layer"
     id="layer1"
     transform="translate(-47.415866,-8.6962468)">
    <flowRoot
       xml:space="preserve"
       id="flowRoot3700"
       style="font-style:normal;font-weight:normal;font-size:40px;line-height:1.25;font-family:sans-serif;letter-spacing:0px;word-spacing:0px;fill:#000000;fill-opacity:1;stroke:none"><flowRegion
         id="flowRegion3702"><rect
           id="rect3704"
           width="206.07112"
           height="43.436558"
           x="176.7767"
           y="119.43821" /></flowRegion><flowPara
         id="flowPara3706" /></flowRoot>    <g
       id="g5926">
      <text
         id="text3692"
         y="17.416142"
         x="54.878777"
         style="font-style:normal;font-variant:normal;font-weight:bold;font-stretch:normal;font-size:12.33311081px;line-height:0.69999999;font-family:Corbel;-inkscape-font-specification:'Corbel, Bold';font-variant-ligatures:none;font-variant-caps:normal;font-variant-numeric:proportional-nums;font-feature-settings:normal;text-align:justify;letter-spacing:-1.41552103px;word-spacing:0px;writing-mode:lr-tb;text-anchor:start;fill:#ffffff;fill-opacity:1;stroke:none;"
         xml:space="preserve"><tspan
           y="17.416142"
           x="54.878777"
           id="tspan3690"
           sodipodi:role="line"
           style="fill:#ffffff;fill-opacity:1;">M<tspan
   dx="4.5400019"
   id="tspan3696"
   style="line-height:0.69999999;letter-spacing:-1.41552103px;fill:#ffffff;fill-opacity:1;">i</tspan></tspan><tspan
           id="tspan3694"
           y="26.049318"
           x="54.878777"
           sodipodi:role="line"
           style="fill:#ffffff;fill-opacity:1;">QU</tspan><tspan
           id="tspan3698"
           y="34.682495"
           x="54.878777"
           sodipodi:role="line" /></text>
      <g
         transform="matrix(0,0.43903904,-0.59122751,0,80.888242,-8.3227994)"
         id="g3763"
         style="fill:#ffffff;fill-opacity:1">
        <g
           id="g3885"
           style="fill:#ffffff;fill-opacity:1">
          <g
             id="g3946"
             style="fill:#ffffff;fill-opacity:1">
            <g
               id="g3939"
               style="fill:#ffffff;fill-opacity:1">
              <path
                 d="m 82.881344,40.350578 c 0.05213,-0.469507 0.147638,-0.867879 0.287853,-1.196805 0.142304,-0.341975 0.328964,-0.608832 0.562524,-0.800147 0.232891,-0.206994 0.520179,-0.326977 0.866403,-0.357009 0.35132,-0.03372 0.76926,0.03748 1.261231,0.220626 0.364468,0.135677 0.761685,0.350711 1.19456,0.650069 0.441057,0.3077 0.890151,0.720359 1.347239,1.243679 0.46514,0.529094 0.912462,1.175963 1.339049,1.944335 0.441365,0.78385 0.813243,1.698612 1.109011,2.741145 0.232102,0.818127 0.396749,1.683088 0.491382,2.58893 0.09532,0.912381 0.1427,1.967066 0.14162,3.159299 0,0 -0.0055,6.070352 -0.0055,6.070352 0,0 -12.865346,-12.458857 -12.865346,-12.458857 0,0 0.0064,-3.101081 0.0064,-3.101081 5.89e-4,-0.284643 0.0045,-0.538994 0.01179,-0.763216 0.0039,-0.232954 0.01113,-0.442038 0.02176,-0.627371 0.01065,-0.191798 0.0247,-0.366185 0.04218,-0.523236 0.01408,-0.159503 0.03161,-0.307907 0.05261,-0.445279 0.05977,-0.360009 0.142794,-0.672958 0.249857,-0.939522 0.105001,-0.278587 0.233452,-0.499218 0.38653,-0.661382 0.156196,-0.165466 0.337066,-0.268634 0.54425,-0.307727 0.212765,-0.04697 0.450363,-0.01818 0.714775,0.08989 0.21871,0.08939 0.433925,0.220752 0.645153,0.395499 0.216579,0.171744 0.421109,0.396663 0.612545,0.675986 0.195679,0.277827 0.374318,0.613946 0.53477,1.00893 0.163347,0.394201 0.301516,0.852523 0.413309,1.374356 0,0 0.03403,0.01854 0.03403,0.01854 m -0.559332,2.599003 c 6.47e-4,-0.372924 -0.0095,-0.702457 -0.03038,-0.988102 -0.02616,-0.288348 -0.06288,-0.555383 -0.110049,-0.800772 -0.129749,-0.653623 -0.32926,-1.181777 -0.593868,-1.582383 -0.256787,-0.396125 -0.550351,-0.676995 -0.876611,-0.846268 -0.322462,-0.167303 -0.577164,-0.176415 -0.769892,-0.03476 -0.188161,0.138299 -0.3258,0.435404 -0.415469,0.889855 -0.04254,0.223221 -0.07165,0.493078 -0.08748,0.810019 -0.01958,0.313717 -0.02979,0.692131 -0.03068,1.135835 0,0 -0.0036,1.791496 -0.0036,1.791496 0,0 2.912989,2.516081 2.912989,2.516081 0,0 0.005,-2.891 0.005,-2.891 m 1.257038,3.981093 c 0,0 5.469207,4.724001 5.469207,4.724001 0,0 0.0035,-3.147703 0.0035,-3.147703 8.39e-4,-0.745387 -0.02847,-1.457893 -0.08772,-2.13508 -0.06887,-0.680089 -0.171918,-1.282301 -0.308292,-1.80513 -0.144412,-0.564131 -0.325123,-1.07011 -0.540489,-1.516884 -0.220679,-0.443647 -0.455304,-0.823057 -0.702939,-1.139269 -0.251029,-0.323706 -0.509344,-0.58834 -0.774284,-0.795439 -0.258829,-0.211829 -0.515735,-0.378491 -0.770652,-0.501446 -0.286318,-0.138101 -0.54713,-0.223186 -0.78402,-0.257383 -0.238594,-0.03685 -0.444752,-0.0069 -0.620247,0.08795 -0.179081,0.08128 -0.332538,0.232742 -0.461468,0.453314 -0.127278,0.209341 -0.225026,0.503299 -0.294093,0.881897 -0.04368,0.224414 -0.07493,0.492942 -0.09389,0.805889 -0.01891,0.304063 -0.02874,0.692663 -0.0295,1.166246 0,0 -0.0051,3.179036 -0.0051,3.179036"
                 style="font-style:normal;font-variant:normal;font-weight:normal;font-stretch:normal;font-size:12.33311081px;line-height:1.25;font-family:Corbel;-inkscape-font-specification:Corbel;letter-spacing:-1.29910421px;word-spacing:0px;fill:#ffffff;fill-opacity:1;stroke:none;stroke-width:0.26458332"
                 id="path3744"
                 inkscape:connector-curvature="0" />
              <path
                 d="m 89.721571,29.739608 c 0,0 -6.9e-5,0.06534 -6.9e-5,0.06534 0.255856,0.205758 0.516835,0.471233 0.783099,0.798262 0.260324,0.333444 0.502482,0.724043 0.725339,1.172361 0.214567,0.454935 0.389801,0.95416 0.524118,1.49621 0.135648,0.547441 0.203719,1.125425 0.203196,1.729907 -7.06e-4,0.817934 -0.13198,1.540523 -0.390193,2.158984 -0.241541,0.5989 -0.589845,1.067761 -1.036662,1.405762 -0.443116,0.312235 -0.960705,0.484964 -1.543112,0.524548 -0.556382,0.03781 -1.156543,-0.0682 -1.792282,-0.306778 -0.59438,-0.223061 -1.100451,-0.530112 -1.52801,-0.91798 -0.411195,-0.382042 -0.747661,-0.818425 -1.015766,-1.310257 -0.261246,-0.479249 -0.457438,-1.007361 -0.592167,-1.587491 -0.132896,-0.580722 -0.19815,-1.195943 -0.197104,-1.851473 0.0073,-0.62109 0.04914,-1.193112 0.126078,-1.7188 0.07749,-0.529695 0.174899,-1.00356 0.292787,-1.422179 0,0 8e-5,-0.05145 8e-5,-0.05145 0,0 -0.628314,0.0063 -0.628314,0.0063 -0.236894,0.0024 -0.441748,0.02471 -0.616418,0.06649 -0.171504,0.04103 -0.320489,0.108951 -0.447956,0.203349 -0.260492,0.200312 -0.46969,0.514903 -0.630879,0.942204 -0.163389,0.419374 -0.244626,0.989329 -0.245926,1.715623 -9.66e-4,0.539168 0.03312,1.055955 0.102682,1.553318 0.06505,0.492463 0.158826,0.997008 0.282242,1.516244 0,0 -0.962249,-0.310646 -0.962249,-0.310646 -0.05554,-0.191414 -0.106048,-0.408985 -0.151619,-0.652653 -0.04986,-0.250742 -0.09034,-0.508347 -0.121568,-0.773183 -0.03561,-0.264849 -0.06206,-0.540844 -0.07945,-0.828375 -0.01736,-0.286901 -0.02576,-0.571742 -0.02523,-0.854984 0.0019,-1.019555 0.118057,-1.847685 0.353237,-2.497816 0.241827,-0.675798 0.571833,-1.183738 0.999935,-1.521304 0.168612,-0.131119 0.359313,-0.231579 0.573406,-0.300722 0.213477,-0.07814 0.45515,-0.132377 0.727027,-0.16197 0,0 8.09358,-0.880969 8.09358,-0.880969 0,0 -0.0021,2.270367 -0.0021,2.270367 0,0 -1.779778,0.323794 -1.779778,0.323794 m -4.14383,0.172029 c -0.08924,0.391722 -0.174218,0.852776 -0.25502,1.3826 -0.0802,0.525907 -0.124123,1.10553 -0.132222,1.741512 -0.0013,0.88799 0.149087,1.615532 0.457823,2.194967 0.317905,0.596643 0.825682,0.995901 1.54975,1.193542 0.384355,0.104914 0.731412,0.128622 1.037261,0.06732 0.313797,-0.06289 0.581681,-0.193705 0.800351,-0.393823 0.212382,-0.216724 0.376752,-0.491537 0.491155,-0.823884 0.10494,-0.34818 0.157954,-0.730156 0.158396,-1.14377 5.82e-4,-0.54418 -0.07244,-1.058722 -0.217808,-1.539471 -0.153933,-0.476047 -0.331296,-0.894597 -0.531066,-1.255614 -0.196573,-0.365737 -0.390104,-0.668539 -0.580667,-0.90989 -0.187589,-0.247826 -0.330989,-0.426073 -0.431737,-0.536911 0,0 -2.346216,0.02342 -2.346216,0.02342"
                 style="font-style:normal;font-variant:normal;font-weight:normal;font-stretch:normal;font-size:12.33311081px;line-height:1.25;font-family:Corbel;-inkscape-font-specification:Corbel;letter-spacing:-1.29910421px;word-spacing:0px;fill:#ffffff;fill-opacity:1;stroke:none;stroke-width:0.26458332"
                 id="path3746"
                 inkscape:connector-curvature="0" />
              <path
                 d="m 82.863204,25.872834 c 0.223275,-0.05067 0.410603,-0.162326 0.559685,-0.336053 0.151413,-0.176443 0.277464,-0.394397 0.377121,-0.653735 0.09438,-0.268616 0.173843,-0.568904 0.238009,-0.900519 0.06459,-0.342215 0.123134,-0.692925 0.175529,-1.051861 0.07903,-0.499041 0.168537,-0.980157 0.268801,-1.443824 0.09451,-0.465211 0.240932,-0.923535 0.441495,-1.378281 0.204499,-0.472545 0.489242,-0.917115 0.860671,-1.337446 0.376786,-0.440393 0.8888,-0.838685 1.554365,-1.198568 0.641755,-0.347009 1.24257,-0.526742 1.793502,-0.524536 0.565838,0.0077 1.064451,0.189527 1.486426,0.553919 0.424253,0.381702 0.754256,0.937904 0.982559,1.668499 0.244575,0.738579 0.368088,1.615334 0.36722,2.620382 -5.31e-4,0.614942 -0.03843,1.186213 -0.113402,1.711675 -0.06224,0.50827 -0.148706,0.966481 -0.258938,1.373866 -0.09729,0.390453 -0.199839,0.726985 -0.307524,1.009966 -0.106855,0.280774 -0.206978,0.51275 -0.300506,0.696612 0,0 -2.091455,0.268023 -2.091455,0.268023 0.24038,-0.668675 0.434127,-1.335788 0.578977,-1.997217 0.146501,-0.668963 0.220792,-1.391972 0.221616,-2.163218 6.51e-4,-0.608229 -0.05132,-1.139214 -0.155272,-1.590188 -0.103093,-0.447256 -0.251394,-0.803501 -0.443305,-1.06841 -0.198865,-0.267299 -0.438362,-0.428336 -0.716063,-0.485322 -0.280721,-0.06182 -0.595753,-0.01366 -0.942173,0.139945 -0.344922,0.152942 -0.621996,0.352807 -0.835763,0.599437 -0.209787,0.242038 -0.380445,0.516384 -0.51368,0.823615 -0.131649,0.30357 -0.239016,0.636334 -0.322791,0.998913 -0.08313,0.350675 -0.158218,0.714453 -0.22544,1.09158 -0.08164,0.488004 -0.177235,0.985405 -0.286405,1.491062 -0.108054,0.491626 -0.257178,0.947194 -0.445618,1.364719 -0.185092,0.410104 -0.429832,0.753887 -0.729878,1.030522 -0.297526,0.261069 -0.664458,0.417658 -1.092636,0.473622 -0.420558,0.05497 -0.76998,-0.0032 -1.055249,-0.16864 -0.276392,-0.160302 -0.498437,-0.393413 -0.669931,-0.698413 -0.168107,-0.298977 -0.291773,-0.65539 -0.372873,-1.07057 -0.08031,-0.411129 -0.119719,-0.855616 -0.118817,-1.336431 0.001,-0.55854 0.03556,-1.088338 0.103943,-1.592444 0.06895,-0.515296 0.15675,-0.997214 0.263993,-1.446827 0,0 0.9756,-0.503333 0.9756,-0.503333 -0.119836,0.516454 -0.215259,1.023076 -0.287019,1.521969 -0.07619,0.489546 -0.116964,0.976466 -0.122812,1.463676 -7.36e-4,0.410663 0.02605,0.752985 0.08063,1.028239 0.05492,0.276997 0.133209,0.496749 0.235486,0.659339 0.09825,0.165771 0.2188,0.278355 0.362533,0.337066 0.140593,0.05308 0.300082,0.05987 0.479393,0.01918 0,0 -2e-6,1.1e-5 -2e-6,1.1e-5"
                 style="font-style:normal;font-variant:normal;font-weight:normal;font-stretch:normal;font-size:12.33311081px;line-height:1.25;font-family:Corbel;-inkscape-font-specification:Corbel;letter-spacing:-1.29910421px;word-spacing:0px;fill:#ffffff;fill-opacity:1;stroke:none;stroke-width:0.26458332"
                 id="path3748"
                 inkscape:connector-curvature="0" />
              <path
                 d="m 81.726236,16.232008 c -7.08e-4,0.395353 0.0511,0.725485 0.156373,0.99277 0.106561,0.262955 0.253554,0.460235 0.442961,0.591486 0.193451,0.134055 0.427385,0.196206 0.70476,0.18403 0.279852,-0.0088 0.589617,-0.09734 0.931806,-0.269835 0,0 0.0096,-6.053686 0.0096,-6.053686 -0.34835,0.323785 -0.661146,0.675359 -0.941217,1.054693 -0.277592,0.365647 -0.51197,0.74321 -0.706085,1.134405 -0.190075,0.383058 -0.335369,0.7718 -0.437951,1.168761 -0.106437,0.396647 -0.159544,0.794592 -0.160266,1.197376 0,0 0,0 0,0 m 7.93906,-7.6438956 C 89.66619,7.7555053 89.604236,7.0555267 89.480363,6.4922965 89.347479,5.9337609 89.165519,5.4362259 88.936636,5.0013415 c 0,0 2.074237,-2.100225 2.074237,-2.100225 0.29302,0.2890378 0.525833,0.7881877 0.695173,1.4993084 0.183869,0.708957 0.276303,1.5740451 0.275427,2.5881754 -10e-4,1.2030487 -0.163303,2.4560075 -0.481281,3.7364947 -0.310829,1.240268 -0.797731,2.445023 -1.44172,3.591952 -0.613638,1.092873 -1.369972,2.08416 -2.241529,2.962739 -0.820329,0.813185 -1.734047,1.470725 -2.712839,1.977742 -0.882267,0.457017 -1.587739,0.674475 -2.145709,0.680342 -0.532099,0.0085 -0.952798,-0.121251 -1.275357,-0.381728 -0.311075,-0.251203 -0.53689,-0.607059 -0.683728,-1.068095 -0.144294,-0.453049 -0.214945,-0.976774 -0.213818,-1.576986 0.0011,-0.564846 0.06253,-1.14273 0.185744,-1.740137 0.120402,-0.609096 0.315455,-1.226976 0.590299,-1.862009 0.283747,-0.655602 0.663144,-1.335611 1.150101,-2.0517 0.513849,-0.763701 1.168909,-1.5621309 1.992024,-2.4132933 0.08198,-0.084772 0.154251,-0.1595074 0.216608,-0.2239895 0.05574,-0.057643 0.189324,-0.1913583 0.403752,-0.4041251 0,0 -0.01288,8.7794619 -0.01288,8.7794619 0.678297,-0.420349 1.291345,-0.92882 1.824315,-1.525353 0.54989,-0.629653 1.019459,-1.315954 1.39747,-2.05302 0.380164,-0.764058 0.665763,-1.559846 0.84987,-2.378261 0.186796,-0.830368 0.281651,-1.6503041 0.28251,-2.4505907 0,0 -1e-5,6.81e-5 -1e-5,6.81e-5"
                 style="font-style:normal;font-variant:normal;font-weight:normal;font-stretch:normal;font-size:12.33311081px;line-height:1.25;font-family:Corbel;-inkscape-font-specification:Corbel;letter-spacing:-1.29910421px;word-spacing:0px;fill:#ffffff;fill-opacity:1;stroke:none;stroke-width:0.26458332"
                 id="path3750"
                 inkscape:connector-curvature="0" />
            </g>
          </g>
        </g>
      </g>
    </g>
    <flowRoot
       xml:space="preserve"
       id="flowRoot3712"
       style="font-style:normal;font-weight:normal;font-size:40px;line-height:1.25;font-family:sans-serif;letter-spacing:0px;word-spacing:0px;fill:#000000;fill-opacity:1;stroke:none"><flowRegion
         id="flowRegion3714"><rect
           id="rect3716"
           width="106.06602"
           height="49.497475"
           x="174.75639"
           y="97.214851" /></flowRegion><flowPara
         id="flowPara3718" /></flowRoot>    <path
       style="fill:none;stroke:none;stroke-width:0.2231141px;stroke-linecap:butt;stroke-linejoin:miter;stroke-opacity:1"
       d="M 90.169045,71.979854 34.420129,71.931694 47.3259,58.604854 76.400477,58.664994 90.169045,71.979849"
       id="path3757"
       inkscape:connector-curvature="0"
       sodipodi:nodetypes="ccccc" />
  </g>
</svg>
